<svg width="51" height="50" viewBox="0 0 51 50" fill="none" xmlns="http://www.w3.org/2000/svg">
<path d="M17.4698 6.25C18.5063 6.25 22.6523 15.625 22.6523 16.6667C22.6523 18.75 19.5428 20.8333 18.5063 22.9167C17.4698 25 19.5428 27.0833 21.6158 29.1667C22.4243 29.9792 25.7618 33.3333 27.8348 32.2917C29.9078 31.25 31.9808 28.125 34.0538 28.125C35.0903 28.125 44.4187 32.2917 44.4187 33.3333C44.4187 37.5 41.3092 40.625 38.1997 41.6667C35.0903 42.7083 33.0173 42.7083 28.8713 41.6667C24.7253 40.625 21.6158 39.5833 16.4333 34.375C11.2508 29.1667 10.2143 26.0417 9.17782 21.875C8.14133 17.7083 8.14133 15.625 9.17782 12.5C10.2143 9.375 13.3238 6.25 17.4698 6.25Z" fill="#FF7171" stroke="#FF7171" stroke-width="2" stroke-linecap="round" stroke-linejoin="round"/>
<path d="M29.9078 14.6667C31.276 15.3125 32.5197 16.1875 33.5562 17.25C34.572 18.2709 35.4219 19.5 36.0438 20.8334" stroke="#FF7171" stroke-width="2" stroke-linecap="round" stroke-linejoin="round"/>
<path d="M31.9808 6.77081C34.9037 7.54165 37.5157 9.06248 39.5887 11.1458C41.6409 13.2291 43.1542 15.8333 43.9005 18.75" stroke="#FF7171" stroke-width="2" stroke-linecap="round" stroke-linejoin="round"/>
</svg>
