<svg width="35" height="35" viewBox="0 0 35 35" fill="none" xmlns="http://www.w3.org/2000/svg">
<path d="M11.4407 4.27441C12.1557 4.27441 15.0159 10.6861 15.0159 11.3985C15.0159 12.8233 12.8707 14.2481 12.1557 15.6729C11.4407 17.0977 12.8707 18.5225 14.3008 19.9473C14.8585 20.503 17.161 22.7969 18.591 22.0845C20.0211 21.3721 21.4512 19.2349 22.8813 19.2349C23.5963 19.2349 30.0317 22.0845 30.0317 22.7969C30.0317 25.6465 27.8866 27.7838 25.7414 28.4962C23.5963 29.2086 22.1662 29.2086 19.3061 28.4962C16.4459 27.7838 14.3008 27.0714 10.7256 23.5093C7.15041 19.9473 6.43537 17.8101 5.72033 14.9605C5.00529 12.1109 5.00529 10.6861 5.72033 8.54884C6.43537 6.41163 8.58049 4.27441 11.4407 4.27441Z" fill="white" stroke="white" stroke-width="2" stroke-linecap="round" stroke-linejoin="round"/>
<path d="M20.0211 10.0306C20.965 10.4723 21.823 11.0707 22.5381 11.7974C23.2388 12.4956 23.8251 13.3362 24.2542 14.2481" stroke="white" stroke-width="2" stroke-linecap="round" stroke-linejoin="round"/>
<path d="M21.4512 4.63062C23.4676 5.15779 25.2695 6.1979 26.6996 7.62271C28.1154 9.04752 29.1593 10.8285 29.6742 12.8233" stroke="white" stroke-width="2" stroke-linecap="round" stroke-linejoin="round"/>
</svg>
