<svg width="40" height="40" viewBox="0 0 40 40" fill="none" xmlns="http://www.w3.org/2000/svg">
<path d="M28.3333 5.56665C30.867 7.02946 32.971 9.13345 34.4338 11.6671C35.8966 14.2008 36.6667 17.0749 36.6666 20.0005C36.6666 22.9261 35.8965 25.8002 34.4337 28.3339C32.9708 30.8675 30.8668 32.9715 28.3331 34.4343C25.7994 35.8971 22.9253 36.6671 19.9997 36.6671C17.0741 36.667 14.2 35.8969 11.6664 34.434C9.13273 32.9711 7.0288 30.8671 5.56604 28.3334C4.10328 25.7997 3.33324 22.9256 3.33331 20L3.34165 19.46C3.43499 16.5816 4.27256 13.7766 5.77271 11.3183C7.27287 8.86002 9.3844 6.8324 11.9015 5.43312C14.4185 4.03384 17.2552 3.31064 20.135 3.33405C23.0148 3.35745 25.8393 4.12665 28.3333 5.56665ZM20 9.99998C19.558 9.99998 19.134 10.1756 18.8215 10.4881C18.5089 10.8007 18.3333 11.2246 18.3333 11.6667C17.0072 11.6667 15.7355 12.1934 14.7978 13.1311C13.8601 14.0688 13.3333 15.3406 13.3333 16.6667C13.3333 17.9927 13.8601 19.2645 14.7978 20.2022C15.7355 21.1399 17.0072 21.6667 18.3333 21.6667V25C18.0569 25.0153 17.7809 24.9629 17.5294 24.8473C17.2779 24.7317 17.0584 24.5564 16.89 24.3367L16.7766 24.1683C16.5486 23.8006 16.1865 23.5359 15.7669 23.4303C15.3472 23.3247 14.903 23.3865 14.5281 23.6025C14.1532 23.8186 13.877 24.1719 13.7579 24.5879C13.6388 25.0039 13.6862 25.4499 13.89 25.8316C14.3154 26.5694 14.9222 27.1863 15.6528 27.6238C16.3835 28.0613 17.2138 28.305 18.065 28.3317H18.3333C18.333 28.7402 18.4826 29.1346 18.754 29.44C19.0253 29.7454 19.3993 29.9405 19.805 29.9883L20 30C20.442 30 20.8659 29.8244 21.1785 29.5118C21.4911 29.1993 21.6666 28.7753 21.6666 28.3333L21.96 28.325C23.2593 28.2499 24.4782 27.6711 25.3575 26.7116C26.2369 25.7521 26.7075 24.4875 26.6693 23.1866C26.6311 21.8856 26.0872 20.6509 25.153 19.7446C24.2189 18.8384 22.9682 18.3321 21.6666 18.3333V15C22.2633 14.98 22.785 15.2333 23.11 15.6633L23.2233 15.8317C23.4513 16.1994 23.8135 16.464 24.2331 16.5696C24.6527 16.6752 25.097 16.6135 25.4719 16.3974C25.8468 16.1814 26.123 15.828 26.2421 15.412C26.3612 14.996 26.3138 14.55 26.11 14.1683C25.6848 13.4302 25.0781 12.813 24.3474 12.3752C23.6168 11.9374 22.7864 11.6935 21.935 11.6667H21.6666C21.6666 11.2246 21.4911 10.8007 21.1785 10.4881C20.8659 10.1756 20.442 9.99998 20 9.99998ZM21.6666 21.6667C22.1087 21.6667 22.5326 21.8422 22.8452 22.1548C23.1577 22.4674 23.3333 22.8913 23.3333 23.3333C23.3333 23.7753 23.1577 24.1993 22.8452 24.5118C22.5326 24.8244 22.1087 25 21.6666 25V21.6667ZM18.3333 15V18.3333C17.8913 18.3333 17.4674 18.1577 17.1548 17.8452C16.8422 17.5326 16.6666 17.1087 16.6666 16.6667C16.6666 16.2246 16.8422 15.8007 17.1548 15.4881C17.4674 15.1756 17.8913 15 18.3333 15Z" fill="white"/>
</svg>
