<svg width="20" height="20" viewBox="0 0 20 20" fill="none" xmlns="http://www.w3.org/2000/svg">
<path d="M10.2 3.27997C13.73 3.27997 16.6301 5.88997 17.1201 9.27997H19.2001L15.7 13.28L12.2 9.27997H14.52C14.2962 8.30116 13.7471 7.42714 12.9625 6.80056C12.1779 6.17397 11.2041 5.83183 10.2 5.82997C8.75005 5.82997 7.47005 6.53997 6.66005 7.60997L4.95005 5.65997C5.60477 4.91178 6.41198 4.31231 7.31749 3.90182C8.22299 3.49132 9.20584 3.27929 10.2 3.27997ZM9.80005 16.72C6.28005 16.72 3.37005 14.11 2.88005 10.72H0.800049L4.30005 6.71997C5.47005 8.04997 6.63005 9.38997 7.80005 10.72H5.48005C5.70393 11.6988 6.25297 12.5728 7.03756 13.1994C7.82216 13.826 8.79596 14.1681 9.80005 14.17C11.25 14.17 12.53 13.46 13.34 12.39L15.05 14.34C14.3962 15.0892 13.5891 15.6893 12.6834 16.0999C11.7777 16.5105 10.7945 16.7219 9.80005 16.72Z" fill="black"/>
</svg>
