<svg width="40" height="40" viewBox="0 0 40 40" fill="none" xmlns="http://www.w3.org/2000/svg">
<path d="M22.5 0C23.8828 0 25 1.11719 25 2.5V3.26562C25 7.53125 22.8203 11.4375 19.3359 13.7031L19.3516 13.7266L23.7891 20H30.625C31.8047 20 32.9141 20.5547 33.625 21.5L37 26C37.8281 27.1016 37.6016 28.6719 36.5 29.5C35.3984 30.3281 33.8281 30.1016 33 29L30 25H22.3906L29.6016 36.1406C30.3516 37.2969 30.0234 38.8437 28.8594 39.6016C27.6953 40.3594 26.1563 40.0234 25.3984 38.8594L12.8516 19.4687C12.625 20.1875 12.5 20.9531 12.5 21.7344V27.5C12.5 28.8828 11.3828 30 10 30C8.61719 30 7.5 28.8828 7.5 27.5V21.7344C7.5 16.6484 10.5938 12.0703 15.3203 10.1797C18.1484 9.04687 20 6.3125 20 3.26562V2.5C20 1.11719 21.1172 0 22.5 0ZM8.75 2.5C9.74456 2.5 10.6984 2.89509 11.4017 3.59835C12.1049 4.30161 12.5 5.25544 12.5 6.25C12.5 7.24456 12.1049 8.19839 11.4017 8.90165C10.6984 9.60491 9.74456 10 8.75 10C7.75544 10 6.80161 9.60491 6.09835 8.90165C5.39509 8.19839 5 7.24456 5 6.25C5 5.25544 5.39509 4.30161 6.09835 3.59835C6.80161 2.89509 7.75544 2.5 8.75 2.5Z" fill="white"/>
</svg>
