<svg width="40" height="40" viewBox="0 0 40 40" fill="none" xmlns="http://www.w3.org/2000/svg">
<path d="M21.4283 6.7667L31.205 14.795C31.755 15.245 32.0833 15.9384 32.0833 16.6784V31.35C32.0833 32.7067 31.02 33.75 29.7783 33.75H25.4166V25.8334C25.4166 24.6178 24.9338 23.452 24.0742 22.5925C23.2147 21.7329 22.0489 21.25 20.8333 21.25H19.1666C17.9511 21.25 16.7853 21.7329 15.9257 22.5925C15.0662 23.452 14.5833 24.6178 14.5833 25.8334V33.75H10.2216C8.97998 33.75 7.91664 32.7067 7.91664 31.35V16.68C7.91664 15.9384 8.24498 15.2467 8.79498 14.7967L18.5716 6.76504C18.9728 6.4313 19.4782 6.24857 20 6.24857C20.5218 6.24857 21.0272 6.43297 21.4283 6.7667ZM29.7783 36.2484C32.4616 36.2484 34.5833 34.0234 34.5833 31.3484V16.6784C34.5852 15.9493 34.4256 15.2289 34.1158 14.569C33.806 13.909 33.3537 13.326 32.7916 12.8617L23.0166 4.83337C22.1683 4.13237 21.1022 3.7489 20.0016 3.7489C18.9011 3.7489 17.835 4.13237 16.9866 4.83337L7.20831 12.8634C6.64621 13.3276 6.194 13.9107 5.8842 14.5707C5.5744 15.2306 5.41472 15.951 5.41664 16.68V31.35C5.41664 34.025 7.53831 36.25 10.2216 36.25L29.7783 36.2484Z" fill="#FF7171"/>
</svg>
