<svg width="40" height="40" viewBox="0 0 40 40" fill="none" xmlns="http://www.w3.org/2000/svg">
<path fill-rule="evenodd" clip-rule="evenodd" d="M23.56 5.60165C23.4883 4.87998 23.4517 4.51831 23.3067 4.23498C23.1213 3.87756 22.8129 3.59931 22.4383 3.45165C22.1433 3.33331 21.78 3.33331 21.0533 3.33331H18.9467C18.22 3.33331 17.8567 3.33331 17.5633 3.44998C17.1876 3.59812 16.8784 3.87767 16.6933 4.23665C16.5483 4.51831 16.5117 4.87998 16.44 5.60331C16.3033 6.96998 16.235 7.65331 15.9483 8.02831C15.7699 8.26249 15.5327 8.44522 15.2607 8.55793C14.9887 8.67064 14.6918 8.7093 14.4 8.66998C13.9333 8.60665 13.4 8.17165 12.3367 7.30165C11.775 6.84165 11.4933 6.61165 11.1917 6.51498C10.8075 6.39221 10.3918 6.41293 10.0217 6.57331C9.73001 6.69831 9.47168 6.95665 8.96001 7.46998L7.47001 8.95831C6.95668 9.47165 6.70001 9.72998 6.57334 10.02C6.41296 10.3901 6.39224 10.8058 6.51501 11.19C6.61168 11.4933 6.84168 11.7733 7.30168 12.3366C8.17334 13.4016 8.60834 13.9333 8.67168 14.4016C8.71069 14.6931 8.67188 14.9898 8.55918 15.2614C8.44648 15.5331 8.26392 15.77 8.03001 15.9483C7.65501 16.235 6.97168 16.3033 5.60334 16.44C4.88001 16.5116 4.51834 16.5483 4.23668 16.6933C3.878 16.878 3.5985 17.1865 3.45001 17.5616C3.33334 17.8566 3.33334 18.22 3.33334 18.9466V21.0533C3.33334 21.78 3.33334 22.1433 3.45001 22.4366C3.59816 22.8124 3.8777 23.1215 4.23668 23.3066C4.51834 23.4516 4.88001 23.4883 5.60334 23.56C6.97001 23.6966 7.65334 23.765 8.03001 24.0516C8.26361 24.2301 8.44586 24.4672 8.55826 24.7388C8.67066 25.0104 8.70921 25.307 8.67001 25.5983C8.60834 26.0666 8.17334 26.5983 7.30334 27.6633C6.84168 28.225 6.61168 28.5066 6.51501 28.8083C6.39224 29.1925 6.41296 29.6082 6.57334 29.9783C6.70001 30.27 6.95668 30.5283 7.47001 31.04L8.96001 32.53C9.47334 33.0433 9.73001 33.3 10.0217 33.4266C10.3918 33.587 10.8075 33.6078 11.1917 33.485C11.4933 33.3883 11.775 33.1583 12.3367 32.6983C13.4017 31.8266 13.9333 31.3916 14.4017 31.3283C14.6932 31.2893 14.9898 31.3281 15.2614 31.4408C15.5331 31.5535 15.7701 31.7361 15.9483 31.97C16.235 32.345 16.3033 33.03 16.44 34.3983C16.5117 35.12 16.5483 35.4816 16.6933 35.765C16.8787 36.1224 17.1871 36.4007 17.5617 36.5483C17.8567 36.6666 18.22 36.6666 18.9467 36.6666H21.0533C21.78 36.6666 22.1433 36.6666 22.4367 36.55C22.8121 36.4022 23.1213 36.1233 23.3067 35.765C23.4517 35.4816 23.4883 35.12 23.56 34.3983C23.6967 33.0283 23.765 32.345 24.0517 31.97C24.2301 31.7358 24.4674 31.5531 24.7393 31.4404C25.0113 31.3277 25.3083 31.289 25.6 31.3283C26.0667 31.3916 26.6 31.8266 27.6633 32.6966C28.225 33.1566 28.5067 33.3866 28.8083 33.4833C29.1926 33.6061 29.6083 33.5854 29.9783 33.425C30.27 33.3 30.5283 33.0416 31.04 32.5283L32.53 31.04C33.0433 30.5266 33.3 30.27 33.4267 29.9783C33.5871 29.6082 33.6078 29.1925 33.485 28.8083C33.3883 28.505 33.1583 28.225 32.6983 27.6633C31.8283 26.5983 31.3933 26.0666 31.33 25.6C31.2904 25.308 31.3289 25.0107 31.4416 24.7384C31.5543 24.4661 31.7372 24.2285 31.9717 24.05C32.3467 23.7666 33.03 23.6966 34.3983 23.56C35.12 23.4883 35.4817 23.4516 35.765 23.3066C36.1231 23.1216 36.4019 22.8132 36.55 22.4383C36.6667 22.1433 36.6667 21.78 36.6667 21.0533V18.9466C36.6667 18.22 36.6667 17.8566 36.55 17.5633C36.4019 17.1876 36.1223 16.8784 35.7633 16.6933C35.4817 16.5483 35.12 16.5116 34.3967 16.44C33.03 16.3033 32.3467 16.235 31.97 15.9483C31.7364 15.7699 31.5542 15.5328 31.4418 15.2612C31.3294 14.9895 31.2908 14.693 31.33 14.4016C31.3917 13.9333 31.8267 13.4016 32.6967 12.3366C33.1583 11.775 33.3883 11.4933 33.485 11.1916C33.6078 10.8074 33.5871 10.3917 33.4267 10.0216C33.3 9.72998 33.0433 9.47165 32.53 8.95998L31.04 7.46998C30.5267 6.95665 30.27 6.69998 29.9783 6.57331C29.6083 6.41293 29.1926 6.39221 28.8083 6.51498C28.5067 6.61165 28.225 6.84165 27.6633 7.30165C26.5983 8.17331 26.0667 8.60831 25.6 8.66998C25.3084 8.70949 25.0115 8.67108 24.7396 8.55867C24.4676 8.44626 24.2303 8.26385 24.0517 8.02998C23.765 7.65498 23.6967 6.96998 23.56 5.60165Z" fill="#FF7171" fill-opacity="0.25"/>
<path d="M20 25C22.7614 25 25 22.7614 25 20C25 17.2386 22.7614 15 20 15C17.2386 15 15 17.2386 15 20C15 22.7614 17.2386 25 20 25Z" fill="#FF7171"/>
</svg>
