<svg width="150" height="120" viewBox="0 0 150 120" fill="none" xmlns="http://www.w3.org/2000/svg">
<path d="M60 7.5C60 3.35156 56.6484 0 52.5 0C48.3516 0 45 3.35156 45 7.5V9.79687C45 18.9375 39.4453 27.1406 30.9609 30.5156C16.7813 36.2109 7.5 49.9219 7.5 65.2031V82.5C7.5 86.6484 10.8516 90 15 90C19.1484 90 22.5 86.6484 22.5 82.5V65.2031C22.5 62.8594 22.875 60.5625 23.5547 58.4062L61.1953 116.578C63.4453 120.047 68.0859 121.055 71.5781 118.805C75.0703 116.555 76.0547 111.914 73.8047 108.422L52.1719 75H71.25L80.25 87C82.7344 90.3047 87.4453 90.9844 90.75 88.5C94.0547 86.0156 94.7344 81.3047 92.25 78L82.125 64.5C79.9922 61.6641 76.6641 60 73.125 60H56.3672L43.0547 41.2031L43.0078 41.1328C53.4844 34.3359 60 22.6172 60 9.82031V7.52344V7.5ZM22.5 18.75C22.5 15.7663 21.3147 12.9048 19.2049 10.795C17.0952 8.68526 14.2337 7.5 11.25 7.5C8.26631 7.5 5.40483 8.68526 3.29505 10.795C1.18526 12.9048 0 15.7663 0 18.75C0 21.7337 1.18526 24.5952 3.29505 26.705C5.40483 28.8147 8.26631 30 11.25 30C14.2337 30 17.0952 28.8147 19.2049 26.705C21.3147 24.5952 22.5 21.7337 22.5 18.75ZM108.75 67.0547L122.484 79.6875C123.609 80.7188 125.273 80.9766 126.656 80.2969C128.039 79.6172 128.883 78.1875 128.766 76.6641L127.453 58.0547L145.898 55.1953C147.422 54.9609 148.641 53.8125 148.969 52.3359C149.297 50.8594 148.711 49.2891 147.445 48.4219L132.07 37.8516L141.328 21.6094C142.102 20.2734 141.961 18.6094 141 17.4141C140.039 16.2188 138.445 15.7266 136.969 16.1719L119.133 21.5859L112.242 4.24219C111.656 2.8125 110.297 1.875 108.75 1.875C107.203 1.875 105.844 2.8125 105.258 4.24219L98.3672 21.5859L80.5312 16.1484C79.0547 15.7031 77.4609 16.1953 76.5 17.3906C75.5391 18.5859 75.4219 20.25 76.1719 21.5859L85.4297 37.7812L70.0547 48.3516C68.7891 49.2188 68.1797 50.7656 68.5312 52.2656C68.5547 52.3359 68.5547 52.4063 68.5781 52.4531H73.125C77.8359 52.4531 82.3125 54.2109 85.7344 57.3281L90.0469 58.0078L89.7656 62.1797L98.25 73.5C98.7422 74.1563 99.1641 74.8359 99.5391 75.5156L108.75 67.0547Z" fill="#FF7171"/>
</svg>
