<svg width="35" height="35" viewBox="0 0 35 35" fill="none" xmlns="http://www.w3.org/2000/svg">
<path d="M11.6666 17.5C13.2137 17.5 14.6975 16.8854 15.7914 15.7915C16.8854 14.6975 17.5 13.2138 17.5 11.6667C17.5 10.1196 16.8854 8.63585 15.7914 7.54189C14.6975 6.44792 13.2137 5.83334 11.6666 5.83334C10.1195 5.83334 8.6358 6.44792 7.54184 7.54189C6.44787 8.63585 5.83329 10.1196 5.83329 11.6667C5.83329 13.2138 6.44787 14.6975 7.54184 15.7915C8.6358 16.8854 10.1195 17.5 11.6666 17.5ZM24.7916 17.5C25.9519 17.5 27.0647 17.0391 27.8852 16.2186C28.7057 15.3981 29.1666 14.2853 29.1666 13.125C29.1666 11.9647 28.7057 10.8519 27.8852 10.0314C27.0647 9.21095 25.9519 8.75001 24.7916 8.75001C23.6313 8.75001 22.5185 9.21095 21.698 10.0314C20.8776 10.8519 20.4166 11.9647 20.4166 13.125C20.4166 14.2853 20.8776 15.3981 21.698 16.2186C22.5185 17.0391 23.6313 17.5 24.7916 17.5ZM6.19788 20.4167C5.32763 20.4167 4.49304 20.7624 3.87768 21.3777C3.26233 21.9931 2.91663 22.8277 2.91663 23.6979V24.0625C2.91663 24.0625 2.91663 30.625 11.6666 30.625C20.4166 30.625 20.4166 24.0625 20.4166 24.0625V23.6979C20.4166 22.8277 20.0709 21.9931 19.4556 21.3777C18.8402 20.7624 18.0056 20.4167 17.1354 20.4167H6.19788ZM24.7916 28.4375C23.0839 28.4375 21.7758 28.1735 20.7739 27.7696C21.3571 26.7856 21.7231 25.6882 21.8472 24.5511C21.8614 24.4129 21.8707 24.2743 21.875 24.1354V23.6979C21.8768 22.4762 21.4054 21.3012 20.5595 20.4196L20.7083 20.4167H28.875C29.7259 20.4167 30.5419 20.7547 31.1436 21.3564C31.7453 21.9581 32.0833 22.7741 32.0833 23.625C32.0833 23.625 32.0833 28.4375 24.7916 28.4375Z" fill="#FF7171"/>
</svg>
