<svg width="279" height="67" viewBox="0 0 279 67" fill="none" xmlns="http://www.w3.org/2000/svg">
<path d="M31.8495 17.8667V48.383H25.726V34.7328H16.1602V29.087H25.726V17.8667H31.8495ZM15.0008 41.5222C16.4984 41.5222 17.9719 41.4031 19.4213 41.1648C20.8706 40.9266 22.0663 40.605 23.0084 40.2V45.56C22.0905 45.9888 20.8344 46.3223 19.2401 46.5606C17.67 46.8226 16.112 46.9536 14.566 46.9536H3.00739V18.5814H21.1243V24.0128H9.23959V41.5222H15.0008Z" fill="#181818"/>
<path d="M185.644 28.2562C185.372 28.3634 185.059 28.417 184.706 28.417C182.559 28.417 180.576 27.948 178.755 27.01C176.961 26.072 175.534 24.7588 174.475 23.0704C173.415 21.382 172.885 19.4658 172.885 17.3218C172.885 15.0438 173.442 13.0338 174.556 11.2918C175.698 9.54979 177.219 8.20979 179.122 7.27179C181.051 6.30699 183.171 5.82458 185.481 5.82458C187.791 5.82458 189.897 6.30699 191.799 7.27179C193.728 8.20979 195.25 9.54979 196.364 11.2918C197.506 13.007 198.076 15.0036 198.076 17.2816C198.076 18.7824 197.832 20.2028 197.343 21.5428C196.854 22.856 196.093 24.33 195.06 25.9648L186.5 39.3514H178.103L185.644 28.2562ZM185.481 22.4674C187.111 22.4674 188.416 21.9716 189.394 20.98C190.372 19.9884 190.861 18.7422 190.861 17.2414C190.861 15.7406 190.372 14.4944 189.394 13.5028C188.416 12.5112 187.111 12.0154 185.481 12.0154C183.85 12.0154 182.546 12.5112 181.567 13.5028C180.589 14.4944 180.1 15.7406 180.1 17.2414C180.1 18.7422 180.589 19.9884 181.567 20.98C182.546 21.9716 183.85 22.4674 185.481 22.4674Z" fill="#FF7171"/>
<path d="M208.29 48.8028C208.018 48.91 207.706 48.9636 207.352 48.9636C205.205 48.9636 203.222 48.4946 201.401 47.5566C199.607 46.6186 198.181 45.3054 197.121 43.617C196.061 41.9286 195.531 40.0124 195.531 37.8684C195.531 35.5904 196.088 33.5804 197.202 31.8384C198.344 30.0964 199.865 28.7564 201.768 27.8184C203.697 26.8536 205.817 26.3712 208.127 26.3712C210.437 26.3712 212.543 26.8536 214.445 27.8184C216.374 28.7564 217.896 30.0964 219.01 31.8384C220.152 33.5536 220.723 35.5502 220.723 37.8282C220.723 39.329 220.478 40.7494 219.989 42.0894C219.5 43.4026 218.739 44.8766 217.706 46.5114L209.146 59.898H200.749L208.29 48.8028ZM208.127 43.014C209.757 43.014 211.062 42.5182 212.04 41.5266C213.018 40.535 213.507 39.2888 213.507 37.788C213.507 36.2872 213.018 35.041 212.04 34.0494C211.062 33.0578 209.757 32.562 208.127 32.562C206.496 32.562 205.192 33.0578 204.214 34.0494C203.235 35.041 202.746 36.2872 202.746 37.788C202.746 39.2888 203.235 40.535 204.214 41.5266C205.192 42.5182 206.496 43.014 208.127 43.014Z" fill="#FF7171"/>
<path d="M251.145 36.6803C251.145 38.6099 250.588 40.3117 249.474 41.7857C248.36 43.2597 246.838 44.3987 244.908 45.2027C243.006 46.0067 240.873 46.4087 238.509 46.4087C236.144 46.4087 233.998 46.0067 232.068 45.2027C230.166 44.3987 228.658 43.2597 227.543 41.7857C226.429 40.3117 225.872 38.6099 225.872 36.6803C225.872 35.2599 226.212 33.9735 226.891 32.8211C227.571 31.6687 228.427 30.7441 229.459 30.0473C230.519 29.3237 231.565 28.8547 232.598 28.6403C231.701 28.3723 230.818 27.8899 229.948 27.1931C229.106 26.4963 228.399 25.6387 227.829 24.6203C227.285 23.6019 227.014 22.5031 227.014 21.3239C227.014 19.6087 227.503 18.0409 228.481 16.6205C229.459 15.2001 230.818 14.0745 232.557 13.2437C234.324 12.3861 236.308 11.9573 238.509 11.9573C240.71 11.9573 242.68 12.3861 244.419 13.2437C246.159 14.0745 247.504 15.2135 248.455 16.6607C249.433 18.0811 249.922 19.6355 249.922 21.3239C249.922 22.5031 249.651 23.6019 249.107 24.6203C248.564 25.6387 247.857 26.4963 246.987 27.1931C246.145 27.8899 245.289 28.3723 244.419 28.6403C245.479 28.8547 246.525 29.3237 247.558 30.0473C248.591 30.7441 249.447 31.6687 250.126 32.8211C250.806 33.9735 251.145 35.2599 251.145 36.6803ZM242.993 21.6053C242.993 20.5601 242.571 19.6891 241.729 18.9923C240.887 18.2687 239.813 17.9069 238.509 17.9069C237.204 17.9069 236.131 18.2419 235.288 18.9119C234.446 19.5551 234.025 20.3993 234.025 21.4445C234.025 22.5701 234.46 23.5081 235.329 24.2585C236.199 24.9821 237.259 25.3439 238.509 25.3439C239.813 25.3439 240.887 24.9955 241.729 24.2987C242.571 23.6019 242.993 22.7041 242.993 21.6053ZM244.012 36.2381C244.012 35.0053 243.482 33.9869 242.422 33.1829C241.389 32.3789 240.085 31.9769 238.509 31.9769C236.933 31.9769 235.615 32.3789 234.555 33.1829C233.522 33.9869 233.006 35.0053 233.006 36.2381C233.006 37.4441 233.508 38.4357 234.514 39.2129C235.547 39.9901 236.878 40.3787 238.509 40.3787C240.139 40.3787 241.457 39.9901 242.463 39.2129C243.495 38.4357 244.012 37.4441 244.012 36.2381Z" fill="#FF7171"/>
<path d="M278.321 36.6803C278.321 38.6099 277.763 40.3117 276.649 41.7857C275.535 43.2597 274.013 44.3987 272.084 45.2027C270.182 46.0067 268.048 46.4087 265.684 46.4087C263.32 46.4087 261.173 46.0067 259.244 45.2027C257.341 44.3987 255.833 43.2597 254.719 41.7857C253.605 40.3117 253.048 38.6099 253.048 36.6803C253.048 35.2599 253.387 33.9735 254.067 32.8211C254.746 31.6687 255.602 30.7441 256.635 30.0473C257.695 29.3237 258.741 28.8547 259.773 28.6403C258.877 28.3723 257.993 27.8899 257.124 27.1931C256.281 26.4963 255.575 25.6387 255.004 24.6203C254.461 23.6019 254.189 22.5031 254.189 21.3239C254.189 19.6087 254.678 18.0409 255.656 16.6205C256.635 15.2001 257.993 14.0745 259.733 13.2437C261.499 12.3861 263.483 11.9573 265.684 11.9573C267.885 11.9573 269.855 12.3861 271.595 13.2437C273.334 14.0745 274.679 15.2135 275.63 16.6607C276.609 18.0811 277.098 19.6355 277.098 21.3239C277.098 22.5031 276.826 23.6019 276.282 24.6203C275.739 25.6387 275.032 26.4963 274.163 27.1931C273.32 27.8899 272.464 28.3723 271.595 28.6403C272.655 28.8547 273.701 29.3237 274.733 30.0473C275.766 30.7441 276.622 31.6687 277.302 32.8211C277.981 33.9735 278.321 35.2599 278.321 36.6803ZM270.168 21.6053C270.168 20.5601 269.747 19.6891 268.904 18.9923C268.062 18.2687 266.988 17.9069 265.684 17.9069C264.38 17.9069 263.306 18.2419 262.464 18.9119C261.621 19.5551 261.2 20.3993 261.2 21.4445C261.2 22.5701 261.635 23.5081 262.505 24.2585C263.374 24.9821 264.434 25.3439 265.684 25.3439C266.988 25.3439 268.062 24.9955 268.904 24.2987C269.747 23.6019 270.168 22.7041 270.168 21.6053ZM271.187 36.2381C271.187 35.0053 270.657 33.9869 269.597 33.1829C268.565 32.3789 267.26 31.9769 265.684 31.9769C264.108 31.9769 262.79 32.3789 261.73 33.1829C260.697 33.9869 260.181 35.0053 260.181 36.2381C260.181 37.4441 260.684 38.4357 261.689 39.2129C262.722 39.9901 264.054 40.3787 265.684 40.3787C267.315 40.3787 268.633 39.9901 269.638 39.2129C270.671 38.4357 271.187 37.4441 271.187 36.2381Z" fill="#FF7171"/>
<path d="M102.324 23.2267V53.743H96.2006V23.2267H102.324ZM91.0192 46.4534C92.5166 46.1913 93.7005 45.8578 94.5701 45.4528V50.8485C93.6525 51.3012 92.4205 51.6585 90.8743 51.9205C89.3524 52.1826 87.8306 52.3136 86.3088 52.3136H73.0472V46.8464H75.6561V29.4085H73.2646V23.9414H93.4106V29.4085H91.0192V46.4534ZM81.6709 46.8464H85.0044V29.4085H81.6709V46.8464Z" fill="#181818"/>
<path d="M156.276 14.2933V44.8096H150.479V31.2309H146.964V44.2736H141.239V14.4363H146.964V25.5136H150.479V14.2933H156.276Z" fill="#181818"/>
<path d="M67.105 4.46667V34.9829H60.9814V4.46667H67.105ZM47.8286 20.904C45.9927 20.904 44.3501 20.5586 42.9008 19.8677C41.4756 19.1769 40.3524 18.224 39.5311 17.0091C38.7339 15.7703 38.3353 14.3648 38.3353 12.7925C38.3353 11.2203 38.7339 9.82668 39.5311 8.61174C40.3524 7.37298 41.4756 6.40818 42.9008 5.71734C44.3501 5.0265 45.9927 4.68107 47.8286 4.68107C49.6645 4.68107 51.295 5.0265 52.7201 5.71734C54.1453 6.40818 55.2565 7.37298 56.0537 8.61174C56.875 9.82668 57.2856 11.2203 57.2856 12.7925C57.2856 14.3648 56.875 15.7703 56.0537 17.0091C55.2565 18.224 54.1453 19.1769 52.7201 19.8677C51.295 20.5586 49.6645 20.904 47.8286 20.904ZM47.8286 9.50508C46.7416 9.50508 45.8599 9.81479 45.1835 10.4341C44.5071 11.0535 44.169 11.8396 44.169 12.7925C44.169 13.7455 44.5071 14.5316 45.1835 15.1509C45.8599 15.7703 46.7416 16.08 47.8286 16.08C48.9156 16.08 49.7852 15.7703 50.4374 15.1509C51.1138 14.5316 51.452 13.7455 51.452 12.7925C51.452 11.8396 51.1138 11.0535 50.4374 10.4341C49.7852 9.81479 48.9156 9.50508 47.8286 9.50508ZM51.1983 22.5835C52.7926 22.5835 54.3024 22.5001 55.7276 22.3333C57.1527 22.1428 58.3122 21.8569 59.206 21.4757V26.9072C57.491 27.6457 54.7855 28.0149 51.0896 28.0149H50.836V34.9829H44.7125V28.0149H37.1034V22.5835H51.1983Z" fill="#181818"/>
<ellipse cx="123.739" cy="28.5" rx="7.17391" ry="7.07143" fill="#FF7171"/>
<rect x="113.217" y="19.5428" width="21.0435" height="3.77143" rx="1.88571" fill="#FF7171"/>
<rect x="121.826" y="18.6" width="6.6" height="3.82609" rx="1.91304" transform="rotate(-90 121.826 18.6)" fill="#FF7171"/>
<rect x="121.826" y="45" width="6.6" height="3.82609" rx="1.91304" transform="rotate(-90 121.826 45)" fill="#FF7171"/>
<rect width="6.648" height="3.79886" rx="1.89943" transform="matrix(-0.712175 -0.702001 0.712175 -0.702001 134.213 41.0194)" fill="#FF7171"/>
<rect x="113.696" y="29.9143" width="6.69565" height="3.77143" rx="1.88571" transform="rotate(-180 113.696 29.9143)" fill="#FF7171"/>
<rect width="6.648" height="3.79886" rx="1.89943" transform="matrix(-0.712175 0.702001 -0.712175 -0.702001 117.788 36.3524)" fill="#FF7171"/>
<rect x="140" y="29.9143" width="6.69565" height="3.77143" rx="1.88571" transform="rotate(-180 140 29.9143)" fill="#FF7171"/>
</svg>
