<svg width="380" height="77" viewBox="0 0 380 77" fill="none" xmlns="http://www.w3.org/2000/svg">
<path d="M40.6184 17.3032V60.2794H31.9946V41.0559H18.5232V33.1048H31.9946V17.3032H40.6184ZM16.8903 50.6173C18.9994 50.6173 21.0746 50.4496 23.1157 50.1141C25.1569 49.7785 26.8408 49.3256 28.1675 48.7553V56.3038C26.8749 56.9077 25.1058 57.3774 22.8606 57.7129C20.6494 58.0819 18.4552 58.2664 16.278 58.2664H0V18.3097H25.5141V25.9588H8.77684V50.6173H16.8903Z" fill="#181818"/>
<path d="M249.483 31.5905C249.1 31.7414 248.66 31.8169 248.162 31.8169C245.139 31.8169 242.345 31.1564 239.781 29.8354C237.255 28.5144 235.246 26.6651 233.753 24.2873C232.261 21.9095 231.515 19.2109 231.515 16.1915C231.515 12.9834 232.299 10.1527 233.868 7.69947C235.476 5.2462 237.619 3.35908 240.298 2.03809C243.015 0.679365 246 0 249.253 0C252.506 0 255.472 0.679365 258.151 2.03809C260.868 3.35908 263.012 5.2462 264.581 7.69947C266.188 10.115 266.992 12.9268 266.992 16.1349C266.992 18.2485 266.647 20.2488 265.959 22.136C265.27 23.9853 264.198 26.0612 262.744 28.3635L250.688 47.2158H238.863L249.483 31.5905ZM249.253 23.4381C251.549 23.4381 253.386 22.7398 254.764 21.3434C256.142 19.9469 256.831 18.1919 256.831 16.0783C256.831 13.9647 256.142 12.2097 254.764 10.8132C253.386 9.41675 251.549 8.71851 249.253 8.71851C246.957 8.71851 245.12 9.41675 243.742 10.8132C242.364 12.2097 241.676 13.9647 241.676 16.0783C241.676 18.1919 242.364 19.9469 243.742 21.3434C245.12 22.7398 246.957 23.4381 249.253 23.4381Z" fill="#FF7171"/>
<path d="M281.375 60.5264C280.993 60.6773 280.552 60.7528 280.055 60.7528C277.031 60.7528 274.238 60.0923 271.674 58.7713C269.148 57.4504 267.138 55.601 265.646 53.2232C264.153 50.8454 263.407 48.1468 263.407 45.1274C263.407 41.9193 264.192 39.0886 265.761 36.6354C267.368 34.1821 269.511 32.295 272.19 30.974C274.907 29.6153 277.893 28.9359 281.146 28.9359C284.399 28.9359 287.365 29.6153 290.044 30.974C292.761 32.295 294.904 34.1821 296.473 36.6354C298.081 39.0509 298.884 41.8627 298.884 45.0708C298.884 47.1844 298.54 49.1848 297.851 51.0719C297.162 52.9213 296.091 54.9971 294.636 57.2994L282.581 76.1518H270.755L281.375 60.5264ZM281.146 52.374C283.442 52.374 285.279 51.6758 286.657 50.2793C288.034 48.8828 288.723 47.1278 288.723 45.0142C288.723 42.9006 288.034 41.1456 286.657 39.7491C285.279 38.3527 283.442 37.6544 281.146 37.6544C278.849 37.6544 277.012 38.3527 275.635 39.7491C274.257 41.1456 273.568 42.9006 273.568 45.0142C273.568 47.1278 274.257 48.8828 275.635 50.2793C277.012 51.6758 278.849 52.374 281.146 52.374Z" fill="#FF7171"/>
<path d="M341.729 43.4542C341.729 46.1716 340.944 48.5683 339.375 50.6441C337.806 52.72 335.663 54.324 332.945 55.4563C330.266 56.5886 327.262 57.1547 323.932 57.1547C320.603 57.1547 317.58 56.5886 314.862 55.4563C312.183 54.324 310.059 52.72 308.49 50.6441C306.921 48.5683 306.136 46.1716 306.136 43.4542C306.136 41.4538 306.615 39.6422 307.572 38.0193C308.528 36.3963 309.734 35.0942 311.188 34.1129C312.681 33.0939 314.154 32.4334 315.609 32.1314C314.346 31.754 313.102 31.0746 311.877 30.0933C310.691 29.112 309.696 27.9043 308.892 26.47C308.127 25.0358 307.744 23.4884 307.744 21.8277C307.744 19.4122 308.433 17.2043 309.81 15.2039C311.188 13.2036 313.102 11.6184 315.551 10.4484C318.039 9.2406 320.833 8.63672 323.932 8.63672C327.032 8.63672 329.807 9.2406 332.256 10.4484C334.706 11.6184 336.6 13.2224 337.94 15.2605C339.317 17.2609 340.006 19.4499 340.006 21.8277C340.006 23.4884 339.624 25.0358 338.858 26.47C338.093 27.9043 337.098 29.112 335.873 30.0933C334.687 31.0746 333.481 31.754 332.256 32.1314C333.749 32.4334 335.222 33.0939 336.677 34.1129C338.131 35.0942 339.337 36.3963 340.293 38.0193C341.25 39.6422 341.729 41.4538 341.729 43.4542ZM330.247 22.224C330.247 20.7521 329.654 19.5254 328.468 18.5441C327.281 17.5251 325.77 17.0156 323.932 17.0156C322.095 17.0156 320.584 17.4873 319.397 18.4309C318.211 19.3367 317.618 20.5256 317.618 21.9976C317.618 23.5827 318.23 24.9037 319.455 25.9605C320.679 26.9796 322.172 27.4891 323.932 27.4891C325.77 27.4891 327.281 26.9984 328.468 26.0171C329.654 25.0358 330.247 23.7715 330.247 22.224ZM331.682 42.8314C331.682 41.0953 330.936 39.6611 329.444 38.5288C327.989 37.3965 326.152 36.8304 323.932 36.8304C321.713 36.8304 319.857 37.3965 318.364 38.5288C316.91 39.6611 316.183 41.0953 316.183 42.8314C316.183 44.5298 316.891 45.9263 318.307 47.0208C319.761 48.1154 321.636 48.6626 323.932 48.6626C326.229 48.6626 328.085 48.1154 329.501 47.0208C330.955 45.9263 331.682 44.5298 331.682 42.8314Z" fill="#FF7171"/>
<path d="M380 43.4542C380 46.1716 379.215 48.5683 377.646 50.6441C376.077 52.72 373.934 54.324 371.217 55.4563C368.538 56.5886 365.534 57.1547 362.204 57.1547C358.874 57.1547 355.851 56.5886 353.134 55.4563C350.455 54.324 348.331 52.72 346.762 50.6441C345.193 48.5683 344.408 46.1716 344.408 43.4542C344.408 41.4538 344.886 39.6422 345.843 38.0193C346.8 36.3963 348.005 35.0942 349.46 34.1129C350.952 33.0939 352.426 32.4334 353.88 32.1314C352.617 31.754 351.373 31.0746 350.149 30.0933C348.962 29.112 347.967 27.9043 347.163 26.47C346.398 25.0358 346.015 23.4884 346.015 21.8277C346.015 19.4122 346.704 17.2043 348.082 15.2039C349.46 13.2036 351.373 11.6184 353.823 10.4484C356.31 9.2406 359.104 8.63672 362.204 8.63672C365.304 8.63672 368.079 9.2406 370.528 10.4484C372.977 11.6184 374.872 13.2224 376.211 15.2605C377.589 17.2609 378.278 19.4499 378.278 21.8277C378.278 23.4884 377.895 25.0358 377.13 26.47C376.364 27.9043 375.369 29.112 374.145 30.0933C372.958 31.0746 371.753 31.754 370.528 32.1314C372.021 32.4334 373.494 33.0939 374.948 34.1129C376.403 35.0942 377.608 36.3963 378.565 38.0193C379.522 39.6422 380 41.4538 380 43.4542ZM368.519 22.224C368.519 20.7521 367.926 19.5254 366.739 18.5441C365.553 17.5251 364.041 17.0156 362.204 17.0156C360.367 17.0156 358.855 17.4873 357.669 18.4309C356.482 19.3367 355.889 20.5256 355.889 21.9976C355.889 23.5827 356.502 24.9037 357.726 25.9605C358.951 26.9796 360.444 27.4891 362.204 27.4891C364.041 27.4891 365.553 26.9984 366.739 26.0171C367.926 25.0358 368.519 23.7715 368.519 22.224ZM369.954 42.8314C369.954 41.0953 369.208 39.6611 367.715 38.5288C366.261 37.3965 364.424 36.8304 362.204 36.8304C359.984 36.8304 358.128 37.3965 356.636 38.5288C355.181 39.6611 354.454 41.0953 354.454 42.8314C354.454 44.5298 355.162 45.9263 356.578 47.0208C358.032 48.1154 359.908 48.6626 362.204 48.6626C364.5 48.6626 366.356 48.1154 367.772 47.0208C369.227 45.9263 369.954 44.5298 369.954 42.8314Z" fill="#FF7171"/>
<path d="M138.171 16.699V59.6751H129.548V16.699H138.171ZM122.251 49.4092C124.359 49.0402 126.027 48.5704 127.251 48.0001V55.5989C125.959 56.2364 124.224 56.7396 122.046 57.1086C119.903 57.4776 117.76 57.6622 115.617 57.6622H96.9407V49.9627H100.615V25.4049H97.2468V17.7054H125.618V25.4049H122.251V49.4092ZM109.085 49.9627H113.78V25.4049H109.085V49.9627Z" fill="#181818"/>
<path d="M217.329 17.6813V60.6574H209.164V41.5345H204.215V59.9026H196.152V17.8826H204.215V33.4828H209.164V17.6813H217.329Z" fill="#181818"/>
<path d="M90.0774 16.699V59.6751H81.4537V16.699H90.0774ZM62.9305 39.8477C60.345 39.8477 58.0318 39.3612 55.9907 38.3883C53.9836 37.4155 52.4017 36.0735 51.2451 34.3625C50.1224 32.6179 49.5611 30.6385 49.5611 28.4243C49.5611 26.2101 50.1224 24.2475 51.2451 22.5365C52.4017 20.7919 53.9836 19.4332 55.9907 18.4603C58.0318 17.4874 60.345 17.0009 62.9305 17.0009C65.516 17.0009 67.8122 17.4874 69.8193 18.4603C71.8263 19.4332 73.3913 20.7919 74.5139 22.5365C75.6705 24.2475 76.2488 26.2101 76.2488 28.4243C76.2488 30.6385 75.6705 32.6179 74.5139 34.3625C73.3913 36.0735 71.8263 37.4155 69.8193 38.3883C67.8122 39.3612 65.516 39.8477 62.9305 39.8477ZM62.9305 23.7946C61.3996 23.7946 60.158 24.2307 59.2054 25.103C58.2529 25.9752 57.7767 27.0823 57.7767 28.4243C57.7767 29.7663 58.2529 30.8734 59.2054 31.7457C60.158 32.6179 61.3996 33.0541 62.9305 33.0541C64.4613 33.0541 65.686 32.6179 66.6045 31.7457C67.5571 30.8734 68.0333 29.7663 68.0333 28.4243C68.0333 27.0823 67.5571 25.9752 66.6045 25.103C65.686 24.2307 64.4613 23.7946 62.9305 23.7946ZM67.6761 42.2129C69.9213 42.2129 72.0476 42.0955 74.0546 41.8607C76.0617 41.5923 77.6946 41.1897 78.9533 40.6529V48.302C76.538 49.3421 72.7279 49.8621 67.523 49.8621H67.1658V59.6751H58.5421V49.8621H47.8262V42.2129H67.6761Z" fill="#181818"/>
<ellipse cx="169.629" cy="38.9537" rx="10.103" ry="9.95871" fill="#FF7171"/>
<rect x="154.811" y="26.3392" width="29.6356" height="5.31131" rx="2.65566" fill="#FF7171"/>
<rect x="166.935" y="25.0115" width="9.29479" height="5.38828" rx="2.69414" transform="rotate(-90 166.935 25.0115)" fill="#FF7171"/>
<rect x="166.935" y="62.1906" width="9.29479" height="5.38828" rx="2.69414" transform="rotate(-90 166.935 62.1906)" fill="#FF7171"/>
<rect width="9.36239" height="5.34994" rx="2.67497" transform="matrix(-0.712175 -0.702001 0.712175 -0.702001 184.379 56.5847)" fill="#FF7171"/>
<rect x="155.485" y="40.9454" width="9.42951" height="5.31131" rx="2.65566" transform="rotate(-180 155.485 40.9454)" fill="#FF7171"/>
<rect width="9.36239" height="5.34994" rx="2.67497" transform="matrix(-0.712175 0.702001 -0.712175 -0.702001 161.248 50.0123)" fill="#FF7171"/>
<rect x="192.529" y="40.9454" width="9.42951" height="5.31131" rx="2.65566" transform="rotate(-180 192.529 40.9454)" fill="#FF7171"/>
</svg>
