<svg width="308" height="75" viewBox="0 0 308 75" fill="none" xmlns="http://www.w3.org/2000/svg">
<path fill-rule="evenodd" clip-rule="evenodd" d="M137.625 16.875C137.625 16.3777 137.427 15.9008 137.076 15.5492C136.724 15.1975 136.247 15 135.75 15C135.253 15 134.776 15.1975 134.424 15.5492C134.073 15.9008 133.875 16.3777 133.875 16.875V20.625C133.875 21.1223 134.073 21.5992 134.424 21.9508C134.776 22.3025 135.253 22.5 135.75 22.5C136.247 22.5 136.724 22.3025 137.076 21.9508C137.427 21.5992 137.625 21.1223 137.625 20.625V16.875ZM125.143 20.4919C124.788 20.1588 124.317 19.9769 123.83 19.9848C123.343 19.9927 122.878 20.1898 122.534 20.5342C122.19 20.8787 121.993 21.3436 121.986 21.8305C121.978 22.3174 122.16 22.7881 122.494 23.1431L125.145 25.7944C125.499 26.1359 125.972 26.3249 126.464 26.3206C126.955 26.3164 127.426 26.1192 127.773 25.7715C128.121 25.4239 128.318 24.9536 128.323 24.462C128.327 23.9704 128.138 23.4968 127.796 23.1431L125.143 20.4919ZM149.008 23.1431C149.35 22.7895 149.539 22.3159 149.534 21.8242C149.53 21.3326 149.333 20.8624 148.985 20.5147C148.638 20.1671 148.167 19.9699 147.676 19.9656C147.184 19.9613 146.711 20.1503 146.357 20.4919L143.706 23.1431C143.364 23.4968 143.175 23.9704 143.179 24.462C143.184 24.9536 143.381 25.4239 143.728 25.7715C144.076 26.1192 144.546 26.3164 145.038 26.3206C145.53 26.3249 146.003 26.1359 146.357 25.7944L149.008 23.1431ZM135.75 24.375C133.264 24.375 130.879 25.3627 129.121 27.1209C127.363 28.879 126.375 31.2636 126.375 33.75C126.375 36.2364 127.363 38.621 129.121 40.3791C130.879 42.1373 133.264 43.125 135.75 43.125C138.236 43.125 140.621 42.1373 142.379 40.3791C144.137 38.621 145.125 36.2364 145.125 33.75C145.125 31.2636 144.137 28.879 142.379 27.1209C140.621 25.3627 138.236 24.375 135.75 24.375ZM118.875 31.875C118.378 31.875 117.901 32.0725 117.549 32.4242C117.198 32.7758 117 33.2527 117 33.75C117 34.2473 117.198 34.7242 117.549 35.0758C117.901 35.4275 118.378 35.625 118.875 35.625H122.625C123.122 35.625 123.599 35.4275 123.951 35.0758C124.302 34.7242 124.5 34.2473 124.5 33.75C124.5 33.2527 124.302 32.7758 123.951 32.4242C123.599 32.0725 123.122 31.875 122.625 31.875H118.875ZM148.875 31.875C148.378 31.875 147.901 32.0725 147.549 32.4242C147.198 32.7758 147 33.2527 147 33.75C147 34.2473 147.198 34.7242 147.549 35.0758C147.901 35.4275 148.378 35.625 148.875 35.625H152.625C153.122 35.625 153.599 35.4275 153.951 35.0758C154.302 34.7242 154.5 34.2473 154.5 33.75C154.5 33.2527 154.302 32.7758 153.951 32.4242C153.599 32.0725 153.122 31.875 152.625 31.875H148.875ZM127.794 44.3569C127.973 44.1839 128.116 43.977 128.215 43.7483C128.313 43.5195 128.365 43.2735 128.367 43.0245C128.369 42.7755 128.321 42.5286 128.227 42.2982C128.133 42.0678 127.994 41.8584 127.818 41.6824C127.642 41.5063 127.432 41.3671 127.202 41.2728C126.971 41.1786 126.724 41.1311 126.475 41.1333C126.227 41.1354 125.98 41.1872 125.752 41.2854C125.523 41.3837 125.316 41.5265 125.143 41.7056L122.492 44.3569C122.313 44.5298 122.17 44.7367 122.072 44.9655C121.973 45.1943 121.922 45.4403 121.92 45.6892C121.917 45.9382 121.965 46.1851 122.059 46.4155C122.153 46.646 122.293 46.8553 122.469 47.0314C122.645 47.2074 122.854 47.3466 123.084 47.4409C123.315 47.5352 123.562 47.5826 123.811 47.5805C124.06 47.5783 124.306 47.5266 124.535 47.4283C124.763 47.33 124.97 47.1872 125.143 47.0081L127.794 44.3569ZM146.357 41.7056C146.003 41.3641 145.53 41.1751 145.038 41.1794C144.546 41.1836 144.076 41.3808 143.728 41.7285C143.381 42.0761 143.184 42.5464 143.179 43.038C143.175 43.5296 143.364 44.0032 143.706 44.3569L146.357 47.0081C146.711 47.3497 147.184 47.5387 147.676 47.5344C148.167 47.5301 148.638 47.3329 148.985 46.9853C149.333 46.6376 149.53 46.1674 149.534 45.6758C149.539 45.1841 149.35 44.7105 149.008 44.3569L146.357 41.7056ZM137.625 46.875C137.625 46.3777 137.427 45.9008 137.076 45.5492C136.724 45.1975 136.247 45 135.75 45C135.253 45 134.776 45.1975 134.424 45.5492C134.073 45.9008 133.875 46.3777 133.875 46.875V50.625C133.875 51.1223 134.073 51.5992 134.424 51.9508C134.776 52.3025 135.253 52.5 135.75 52.5C136.247 52.5 136.724 52.3025 137.076 51.9508C137.427 51.5992 137.625 51.1223 137.625 50.625V46.875Z" fill="#FF7171"/>
<path d="M122.531 19.5816C122.571 19.9394 122.964 20.276 123.174 20.5389C123.794 21.3133 124.38 22.0671 125.105 22.7519C125.743 23.3555 126.414 23.9256 127.051 24.5253C127.404 24.8579 126.439 23.7665 126.078 23.4424C124.997 22.4729 123.922 21.4927 122.845 20.5232C122.402 20.1246 122.669 22.2108 122.703 22.3752C122.929 23.4595 123.346 24.2235 123.771 25.2002C124.018 25.7679 123.345 24.0374 123.127 23.4581C122.793 22.5716 123.322 23.1072 123.661 23.5052C124.354 24.3201 125.209 24.914 126.062 25.5455C126.441 25.8258 128.681 27.8215 128.432 26.2988C128.072 24.0965 126.853 22.2964 125.56 20.5232C125.412 20.3205 124.585 19.0465 124.257 19.0793C124.064 19.0987 124.637 20.6023 124.681 20.7116C125.173 21.9251 126.084 23.0502 126.863 24.0859C128.029 25.6382 129.279 27.1236 130.551 28.5902C130.662 28.7183 131.973 30.4787 131.995 29.7516C132.017 28.9777 131.885 28.1832 131.822 27.4131C131.601 24.7157 132.092 21.5842 133.517 19.2206C133.553 19.1615 134.302 18.0317 134.364 18.122C134.498 18.315 134.398 18.8814 134.396 19.095C134.387 19.9601 134.327 20.8258 134.223 21.6846C134.175 22.0812 133.744 24.644 133.972 22.8303C134.205 20.9828 134.523 19.1246 134.71 17.2745C134.733 17.0403 134.95 14.7319 134.961 15.7835C134.983 17.861 134.812 19.9252 134.71 21.9985C134.695 22.2964 134.654 23.1861 134.71 22.8931C134.887 21.9528 134.962 20.9944 135.134 20.0524C135.472 18.2007 136.186 16.5225 136.703 14.732C137.176 13.0918 136.723 15.5487 136.656 15.9561C136.269 18.3095 135.846 20.6666 135.557 23.0344C135.484 23.6315 135.553 22.84 135.557 22.7832C135.62 21.9733 135.65 21.1558 135.761 20.3506C136.007 18.5711 136.448 16.6302 137.189 14.9831C137.643 13.9748 137.347 15.6769 137.331 16.0346C137.174 19.4509 136.997 22.8672 136.829 26.2831C136.825 26.35 136.694 27.3252 136.797 27.4288C136.84 27.4721 136.834 27.3116 136.86 27.2562C136.97 27.0215 137.134 26.7422 137.268 26.5342C138.706 24.2972 140.587 22.7479 142.667 21.1353C142.78 21.0477 145.181 19.1837 145.241 19.4246C145.632 20.9884 144.909 23.2059 144.535 24.698C144.261 25.7869 143.946 26.8667 143.64 27.9467C143.615 28.0357 143.371 28.5934 143.467 28.7315C143.54 28.8352 143.645 28.5462 143.703 28.4333C144.101 27.6473 144.483 26.849 144.911 26.0791C146.047 24.038 147.592 22.371 149.07 20.586C150.18 19.2466 149.155 21.0853 148.882 21.6532C148.184 23.106 147.432 24.6785 146.073 25.624C145.978 25.6895 145.837 25.9898 145.837 25.8751C145.837 25.4235 145.925 24.9394 145.978 24.494C146.212 22.559 146.805 20.7475 147.579 18.9695C147.597 18.9291 147.908 18.0485 147.768 18.2632C147.273 19.0181 146.912 19.8921 146.543 20.7116C146.033 21.8468 145.584 23.0032 145.225 24.1958C145.064 24.7316 144.371 26.144 144.833 25.828C145.216 25.5654 145.538 24.8818 145.837 24.5253C146.302 23.9723 146.819 23.4812 147.328 22.9716C147.908 22.3919 148.19 21.9774 147.956 23.003C147.707 24.097 147.255 24.9801 146.685 25.9378C145.75 27.5077 144.702 29.1823 144.032 30.8816C143.772 31.5407 143.295 32.4188 143.295 33.1416C143.295 33.5742 143.231 34.3054 143.122 34.7268C142.928 35.4791 143.064 36.2196 142.761 36.9554C142.358 37.9345 144.104 35.308 144.644 34.3972C144.89 33.9826 145.272 32.6125 145.272 33.0945C145.272 33.4297 145.098 33.8055 145.021 34.1304C144.698 35.4932 144.667 36.9174 143.64 37.9442C143.13 38.4546 141.902 39.5585 141.176 39.6392C140.139 39.7543 139.198 40.5857 138.1 40.6279C137.71 40.6429 137.293 40.8627 136.938 41.0203C136.567 41.1853 136.904 40.9935 137.08 40.9104C137.506 40.7091 137.841 40.5726 138.178 40.2355C138.394 40.0199 139.193 39.3702 139.45 39.7804C139.646 40.0952 139.703 40.4092 139.512 40.7692C139.037 41.6662 138.209 41.9512 137.221 41.8992C136.648 41.869 135.955 41.6372 135.385 41.5068C134.929 41.4027 134.434 41.3042 133.972 41.2243C133.793 41.1934 133.309 41.2838 133.156 41.1615C132.633 40.7431 131.972 40.3347 131.398 39.9217C129.345 38.443 128.181 35.5906 128.181 33.1416C128.181 31.8927 128.452 30.5403 129.515 29.7202C131.158 28.4527 133.391 27.0679 135.526 27.0679C136.58 27.0679 137.227 27.9079 137.927 28.6216C138.796 29.5073 138.916 30.1365 138.916 31.3525C138.916 33.3991 137.979 33.9292 136.185 34.8209C134.997 35.4116 133.741 36.1441 132.45 36.5003C132.229 36.5612 131.925 35.4544 131.885 35.3075C131.279 33.0959 131.854 30.2219 133.831 28.7942C134.509 28.3047 135.338 31.4272 134.851 32.0901C134.31 32.8261 134.399 29.4143 134.396 29.1866C134.377 27.7525 133.862 27.6329 132.481 27.6329C131.542 27.6329 130.759 28.29 129.876 28.3391C129.43 28.3639 128.211 29.0596 127.898 29.3906C126.661 30.701 126.054 32.672 126.8 34.3501C127.407 35.7158 128.092 37.5093 129.17 38.6504C129.668 39.1782 130.127 39.7019 130.786 40.0315C131.433 40.355 132.432 41.1114 133.125 41.1929C133.712 41.262 134.379 42.0331 134.961 42.2915C135.643 42.5946 136.652 42.1522 137.221 41.8678C138.754 41.1012 141.149 40.7044 142.055 39.0742C142.376 38.4965 142.937 37.9794 143.295 37.4105C143.743 36.6988 143.879 35.91 144.142 35.1191C144.616 33.6986 144.948 32.022 144.99 30.5206C145.013 29.6939 144.912 28.8515 144.676 28.0566C144.524 27.5476 144.046 27.0441 143.64 26.7383C143.102 26.3337 142.424 25.5406 141.71 25.5141C140.101 25.4545 138.44 25.2182 136.813 25.4042C136.058 25.4905 135.306 25.5811 134.584 25.828C133.985 26.0329 133.477 26.4271 132.874 26.6127C132.701 26.6659 133.552 25.8528 133.69 25.7181C134.133 25.2826 135.449 23.9638 134.977 24.3684C133.217 25.8762 131.083 27.0096 129.107 28.1979C128.084 28.8125 126.992 29.634 125.874 30.0812C125.599 30.1911 126.278 29.643 126.517 29.4691C128.445 28.0708 130.549 26.8564 132.638 25.7181C133.56 25.2157 134.558 24.3907 134.019 25.8751C133.187 28.168 131.601 30.1778 130.143 32.1058C129.58 32.8499 130.633 31.5351 130.786 31.3838C131.976 30.2063 133.165 28.9493 134.443 27.8683C135.394 27.0638 133.064 29.9478 132.277 30.913C131.205 32.2278 130.086 33.512 129.107 34.8994C128.056 36.3884 129.231 34.759 128.558 35.7469C128.525 35.7952 128.567 35.6287 128.589 35.5743C128.98 34.5841 129.494 33.6692 130.19 32.8591C131.015 31.8982 130.846 32.4451 130.723 33.4084C130.696 33.6192 130.447 35.3748 130.582 35.1348C131.141 34.1448 131.728 33.1654 132.356 32.2157C132.804 31.5365 132.02 33.8296 131.963 34.0519C131.721 35.0059 131.431 35.9577 131.241 36.924C131.059 37.8497 131.846 36.5251 131.9 36.4532C133.322 34.5775 134.961 32.8587 136.624 31.1955C137.698 30.1217 136.668 33.5056 136.593 33.8165C136.068 36.0021 135.265 38.1103 134.71 40.2826C134.094 42.6905 136.331 35.5755 137.362 33.3143C137.636 32.7147 138.027 31.8619 137.519 33.0318C136.668 34.9912 135.533 36.7719 134.317 38.5248C134.013 38.964 133.937 37.6843 133.831 37.4105C133.608 36.835 133.341 38.0805 133.266 38.3051C133.218 38.4494 133.472 38.0812 133.564 37.9598C133.961 37.4336 134.385 36.9182 134.82 36.4218C135.524 35.6169 135.512 36.6375 135.636 37.285C135.711 37.6793 135.7 37.7068 135.903 37.3164C136.581 36.0097 137.594 34.8823 138.445 33.6909C139.234 32.5862 140.011 31.5185 140.47 30.2381C140.846 29.187 140.45 30.8563 140.375 31.0856C139.783 32.9141 138.929 34.7619 137.99 36.4375C137.768 36.8331 137.882 36.5221 137.927 36.2962C138.104 35.4106 138.209 34.5081 138.32 33.6125C138.509 32.0831 138.644 30.5554 138.853 29.0297C138.901 28.6776 139.202 27.6046 138.712 28.1194C137.775 29.1041 136.908 29.8816 135.73 30.5677C135.065 30.9552 134.474 31.4678 134.961 30.4265C135.321 29.6554 137.827 26.6472 138.414 28.1822C138.883 29.4105 138.818 30.6458 139.026 31.9175C139.139 32.6114 139.295 31.5744 139.34 31.3525C139.565 30.2267 139.908 29.1214 140.297 28.0409C140.503 27.4685 140.95 26.8421 141.035 26.2517C141.246 24.7701 141.308 29.2526 141.145 30.7404C141.001 32.0504 141.081 30.8326 141.239 30.2224C141.311 29.9416 141.638 27.8451 141.992 27.727C142.007 27.7221 142.024 28.7737 142.023 28.8099C142.017 29.56 141.958 30.3059 141.914 31.0543C141.873 31.7409 141.769 32.4259 141.741 33.1102C141.713 33.8038 141.492 34.4508 141.458 35.1191C141.408 36.1338 140.532 37.8454 139.512 38.054C138.114 38.3401 136.85 38.8943 135.385 38.9329C134.82 38.9478 134.254 38.9329 133.69 38.9329C132.769 38.9329 131.288 38.569 131.288 37.3791" stroke="#F4F5F7" stroke-width="3" stroke-linecap="round"/>
<circle cx="136" cy="33.5" r="7.5" fill="#FF7171"/>
<rect x="125" y="24" width="22" height="4" rx="2" fill="#FF7171"/>
<rect x="134" y="23" width="7" height="4" rx="2" transform="rotate(-90 134 23)" fill="#FF7171"/>
<path d="M35.16 20V54.16H28.4V38.88H17.84V32.56H28.4V20H35.16ZM16.56 46.48C18.2133 46.48 19.84 46.3467 21.44 46.08C23.04 45.8133 24.36 45.4533 25.4 45V51C24.3867 51.48 23 51.8533 21.24 52.12C19.5067 52.4133 17.7867 52.56 16.08 52.56H3.32V20.8H23.32V26.88H10.2V46.48H16.56Z" fill="#181818"/>
<path d="M204.94 31.63C204.64 31.75 204.295 31.81 203.905 31.81C201.535 31.81 199.345 31.285 197.335 30.235C195.355 29.185 193.78 27.715 192.61 25.825C191.44 23.935 190.855 21.79 190.855 19.39C190.855 16.84 191.47 14.59 192.7 12.64C193.96 10.69 195.64 9.19 197.74 8.14C199.87 7.06 202.21 6.52 204.76 6.52C207.31 6.52 209.635 7.06 211.735 8.14C213.865 9.19 215.545 10.69 216.775 12.64C218.035 14.56 218.665 16.795 218.665 19.345C218.665 21.025 218.395 22.615 217.855 24.115C217.315 25.585 216.475 27.235 215.335 29.065L205.885 44.05H196.615L204.94 31.63ZM204.76 25.15C206.56 25.15 208 24.595 209.08 23.485C210.16 22.375 210.7 20.98 210.7 19.3C210.7 17.62 210.16 16.225 209.08 15.115C208 14.005 206.56 13.45 204.76 13.45C202.96 13.45 201.52 14.005 200.44 15.115C199.36 16.225 198.82 17.62 198.82 19.3C198.82 20.98 199.36 22.375 200.44 23.485C201.52 24.595 202.96 25.15 204.76 25.15Z" fill="#FF7171"/>
<path d="M229.94 54.63C229.64 54.75 229.295 54.81 228.905 54.81C226.535 54.81 224.345 54.285 222.335 53.235C220.355 52.185 218.78 50.715 217.61 48.825C216.44 46.935 215.855 44.79 215.855 42.39C215.855 39.84 216.47 37.59 217.7 35.64C218.96 33.69 220.64 32.19 222.74 31.14C224.87 30.06 227.21 29.52 229.76 29.52C232.31 29.52 234.635 30.06 236.735 31.14C238.865 32.19 240.545 33.69 241.775 35.64C243.035 37.56 243.665 39.795 243.665 42.345C243.665 44.025 243.395 45.615 242.855 47.115C242.315 48.585 241.475 50.235 240.335 52.065L230.885 67.05H221.615L229.94 54.63ZM229.76 48.15C231.56 48.15 233 47.595 234.08 46.485C235.16 45.375 235.7 43.98 235.7 42.3C235.7 40.62 235.16 39.225 234.08 38.115C233 37.005 231.56 36.45 229.76 36.45C227.96 36.45 226.52 37.005 225.44 38.115C224.36 39.225 223.82 40.62 223.82 42.3C223.82 43.98 224.36 45.375 225.44 46.485C226.52 47.595 227.96 48.15 229.76 48.15Z" fill="#FF7171"/>
<path d="M277.25 41.06C277.25 43.22 276.635 45.125 275.405 46.775C274.175 48.425 272.495 49.7 270.365 50.6C268.265 51.5 265.91 51.95 263.3 51.95C260.69 51.95 258.32 51.5 256.19 50.6C254.09 49.7 252.425 48.425 251.195 46.775C249.965 45.125 249.35 43.22 249.35 41.06C249.35 39.47 249.725 38.03 250.475 36.74C251.225 35.45 252.17 34.415 253.31 33.635C254.48 32.825 255.635 32.3 256.775 32.06C255.785 31.76 254.81 31.22 253.85 30.44C252.92 29.66 252.14 28.7 251.51 27.56C250.91 26.42 250.61 25.19 250.61 23.87C250.61 21.95 251.15 20.195 252.23 18.605C253.31 17.015 254.81 15.755 256.73 14.825C258.68 13.865 260.87 13.385 263.3 13.385C265.73 13.385 267.905 13.865 269.825 14.825C271.745 15.755 273.23 17.03 274.28 18.65C275.36 20.24 275.9 21.98 275.9 23.87C275.9 25.19 275.6 26.42 275 27.56C274.4 28.7 273.62 29.66 272.66 30.44C271.73 31.22 270.785 31.76 269.825 32.06C270.995 32.3 272.15 32.825 273.29 33.635C274.43 34.415 275.375 35.45 276.125 36.74C276.875 38.03 277.25 39.47 277.25 41.06ZM268.25 24.185C268.25 23.015 267.785 22.04 266.855 21.26C265.925 20.45 264.74 20.045 263.3 20.045C261.86 20.045 260.675 20.42 259.745 21.17C258.815 21.89 258.35 22.835 258.35 24.005C258.35 25.265 258.83 26.315 259.79 27.155C260.75 27.965 261.92 28.37 263.3 28.37C264.74 28.37 265.925 27.98 266.855 27.2C267.785 26.42 268.25 25.415 268.25 24.185ZM269.375 40.565C269.375 39.185 268.79 38.045 267.62 37.145C266.48 36.245 265.04 35.795 263.3 35.795C261.56 35.795 260.105 36.245 258.935 37.145C257.795 38.045 257.225 39.185 257.225 40.565C257.225 41.915 257.78 43.025 258.89 43.895C260.03 44.765 261.5 45.2 263.3 45.2C265.1 45.2 266.555 44.765 267.665 43.895C268.805 43.025 269.375 41.915 269.375 40.565Z" fill="#FF7171"/>
<path d="M307.25 41.06C307.25 43.22 306.635 45.125 305.405 46.775C304.175 48.425 302.495 49.7 300.365 50.6C298.265 51.5 295.91 51.95 293.3 51.95C290.69 51.95 288.32 51.5 286.19 50.6C284.09 49.7 282.425 48.425 281.195 46.775C279.965 45.125 279.35 43.22 279.35 41.06C279.35 39.47 279.725 38.03 280.475 36.74C281.225 35.45 282.17 34.415 283.31 33.635C284.48 32.825 285.635 32.3 286.775 32.06C285.785 31.76 284.81 31.22 283.85 30.44C282.92 29.66 282.14 28.7 281.51 27.56C280.91 26.42 280.61 25.19 280.61 23.87C280.61 21.95 281.15 20.195 282.23 18.605C283.31 17.015 284.81 15.755 286.73 14.825C288.68 13.865 290.87 13.385 293.3 13.385C295.73 13.385 297.905 13.865 299.825 14.825C301.745 15.755 303.23 17.03 304.28 18.65C305.36 20.24 305.9 21.98 305.9 23.87C305.9 25.19 305.6 26.42 305 27.56C304.4 28.7 303.62 29.66 302.66 30.44C301.73 31.22 300.785 31.76 299.825 32.06C300.995 32.3 302.15 32.825 303.29 33.635C304.43 34.415 305.375 35.45 306.125 36.74C306.875 38.03 307.25 39.47 307.25 41.06ZM298.25 24.185C298.25 23.015 297.785 22.04 296.855 21.26C295.925 20.45 294.74 20.045 293.3 20.045C291.86 20.045 290.675 20.42 289.745 21.17C288.815 21.89 288.35 22.835 288.35 24.005C288.35 25.265 288.83 26.315 289.79 27.155C290.75 27.965 291.92 28.37 293.3 28.37C294.74 28.37 295.925 27.98 296.855 27.2C297.785 26.42 298.25 25.415 298.25 24.185ZM299.375 40.565C299.375 39.185 298.79 38.045 297.62 37.145C296.48 36.245 295.04 35.795 293.3 35.795C291.56 35.795 290.105 36.245 288.935 37.145C287.795 38.045 287.225 39.185 287.225 40.565C287.225 41.915 287.78 43.025 288.89 43.895C290.03 44.765 291.5 45.2 293.3 45.2C295.1 45.2 296.555 44.765 297.665 43.895C298.805 43.025 299.375 41.915 299.375 40.565Z" fill="#FF7171"/>
<path d="M112.96 26V60.16H106.2V26H112.96ZM100.48 52C102.133 51.7067 103.44 51.3333 104.4 50.88V56.92C103.387 57.4267 102.027 57.8267 100.32 58.12C98.64 58.4133 96.96 58.56 95.28 58.56H80.64V52.44H83.52V32.92H80.88V26.8H103.12V32.92H100.48V52ZM90.16 52.44H93.84V32.92H90.16V52.44Z" fill="#181818"/>
<path d="M172.52 16V50.16H166.12V34.96H162.24V49.56H155.92V16.16H162.24V28.56H166.12V16H172.52Z" fill="#181818"/>
<path d="M74.08 5V39.16H67.32V5H74.08ZM52.8 23.4C50.7733 23.4 48.96 23.0133 47.36 22.24C45.7867 21.4667 44.5467 20.4 43.64 19.04C42.76 17.6533 42.32 16.08 42.32 14.32C42.32 12.56 42.76 11 43.64 9.64C44.5467 8.25333 45.7867 7.17333 47.36 6.4C48.96 5.62667 50.7733 5.24 52.8 5.24C54.8267 5.24 56.6267 5.62667 58.2 6.4C59.7733 7.17333 61 8.25333 61.88 9.64C62.7867 11 63.24 12.56 63.24 14.32C63.24 16.08 62.7867 17.6533 61.88 19.04C61 20.4 59.7733 21.4667 58.2 22.24C56.6267 23.0133 54.8267 23.4 52.8 23.4ZM52.8 10.64C51.6 10.64 50.6267 10.9867 49.88 11.68C49.1333 12.3733 48.76 13.2533 48.76 14.32C48.76 15.3867 49.1333 16.2667 49.88 16.96C50.6267 17.6533 51.6 18 52.8 18C54 18 54.96 17.6533 55.68 16.96C56.4267 16.2667 56.8 15.3867 56.8 14.32C56.8 13.2533 56.4267 12.3733 55.68 11.68C54.96 10.9867 54 10.64 52.8 10.64ZM56.52 25.28C58.28 25.28 59.9467 25.1867 61.52 25C63.0933 24.7867 64.3733 24.4667 65.36 24.04V30.12C63.4667 30.9467 60.48 31.36 56.4 31.36H56.12V39.16H49.36V31.36H40.96V25.28H56.52Z" fill="#181818"/>
</svg>
