<svg width="37" height="45" viewBox="0 0 37 45" fill="none" xmlns="http://www.w3.org/2000/svg">
<path d="M18.5 0C23.4065 0 28.1121 1.95606 31.5815 5.43787C35.0509 8.91968 37 13.642 37 18.5661C37 24.9074 33.5549 30.0976 29.9248 33.8212C28.1111 35.6614 26.1321 37.3298 24.013 38.8051L23.1373 39.4034L22.7262 39.6777L21.9513 40.1728L21.2606 40.5957L20.4055 41.0949C19.8251 41.4274 19.1683 41.6023 18.5 41.6023C17.8317 41.6023 17.1749 41.4274 16.5945 41.0949L15.7394 40.5957L14.6705 39.9356L14.2758 39.6777L13.4331 39.1146C11.1469 37.5623 9.01752 35.7894 7.07522 33.8212C3.44511 30.0956 0 24.9074 0 18.5661C0 13.642 1.9491 8.91968 5.41852 5.43787C8.88795 1.95606 13.5935 0 18.5 0ZM18.5 12.3774C17.6902 12.3774 16.8883 12.5374 16.1401 12.8485C15.3919 13.1595 14.7121 13.6153 14.1395 14.19C13.5669 14.7647 13.1126 15.4469 12.8027 16.1978C12.4928 16.9486 12.3333 17.7533 12.3333 18.5661C12.3333 19.3788 12.4928 20.1835 12.8027 20.9344C13.1126 21.6852 13.5669 22.3675 14.1395 22.9421C14.7121 23.5168 15.3919 23.9727 16.1401 24.2837C16.8883 24.5947 17.6902 24.7547 18.5 24.7547C20.1355 24.7547 21.704 24.1027 22.8605 22.9421C24.017 21.7815 24.6667 20.2074 24.6667 18.5661C24.6667 16.9247 24.017 15.3506 22.8605 14.19C21.704 13.0294 20.1355 12.3774 18.5 12.3774Z" fill="#FF7171"/>
</svg>
