<svg width="45" height="45" viewBox="0 0 45 45" fill="none" xmlns="http://www.w3.org/2000/svg">
<path d="M26.25 28.125C26.7812 28.125 27.2425 27.93 27.6337 27.54C28.025 27.15 28.22 26.6887 28.2188 26.1562C28.2175 25.6237 28.0225 25.1631 27.6337 24.7744C27.245 24.3856 26.7838 24.19 26.25 24.1875C25.7162 24.185 25.2556 24.3806 24.8681 24.7744C24.4806 25.1681 24.285 25.6287 24.2812 26.1562C24.2775 26.6838 24.4731 27.145 24.8681 27.54C25.2631 27.935 25.7237 28.13 26.25 28.125ZM24.8438 22.125H27.6562C27.6562 21.2188 27.75 20.555 27.9375 20.1337C28.125 19.7125 28.5625 19.1575 29.25 18.4688C30.1875 17.5313 30.8125 16.7737 31.125 16.1962C31.4375 15.6187 31.5938 14.9388 31.5938 14.1562C31.5938 12.75 31.1012 11.6019 30.1163 10.7119C29.1313 9.82187 27.8425 9.37625 26.25 9.375C24.9688 9.375 23.8519 9.73437 22.8994 10.4531C21.9469 11.1719 21.2825 12.125 20.9062 13.3125L23.4375 14.3438C23.7188 13.5625 24.1019 12.9769 24.5869 12.5869C25.0719 12.1969 25.6262 12.0013 26.25 12C27 12 27.6094 12.2113 28.0781 12.6337C28.5469 13.0562 28.7812 13.6263 28.7812 14.3438C28.7812 14.7812 28.6562 15.1956 28.4062 15.5869C28.1562 15.9781 27.7188 16.47 27.0938 17.0625C26.0625 17.9688 25.43 18.68 25.1962 19.1962C24.9625 19.7125 24.845 20.6888 24.8438 22.125ZM15 33.75C13.9688 33.75 13.0862 33.3831 12.3525 32.6494C11.6187 31.9156 11.2512 31.0325 11.25 30V7.5C11.25 6.46875 11.6175 5.58625 12.3525 4.8525C13.0875 4.11875 13.97 3.75125 15 3.75H37.5C38.5312 3.75 39.4144 4.1175 40.1494 4.8525C40.8844 5.5875 41.2513 6.47 41.25 7.5V30C41.25 31.0312 40.8831 31.9144 40.1494 32.6494C39.4156 33.3844 38.5325 33.7512 37.5 33.75H15ZM7.5 41.25C6.46875 41.25 5.58625 40.8831 4.8525 40.1494C4.11875 39.4156 3.75125 38.5325 3.75 37.5V11.25H7.5V37.5H33.75V41.25H7.5Z" fill="black"/>
</svg>
