<svg width="35" height="35" viewBox="0 0 35 35" fill="none" xmlns="http://www.w3.org/2000/svg">
<path fill-rule="evenodd" clip-rule="evenodd" d="M2.91663 16.7708C2.91663 9.68771 9.70663 4.375 17.5 4.375C25.2933 4.375 32.0833 9.68771 32.0833 16.7708C32.0833 23.854 25.2933 29.1667 17.5 29.1667C16.7329 29.1667 15.9813 29.1181 15.2454 29.0208L11.0162 31.8383C10.7762 31.9982 10.4943 32.0833 10.2059 32.0829C9.91762 32.0825 9.63588 31.9967 9.39631 31.8363C9.15675 31.6758 8.97012 31.448 8.86001 31.1815C8.74989 30.915 8.72124 30.6219 8.77767 30.3392L9.42663 27.1002C5.58246 24.9229 2.91663 21.1706 2.91663 16.7708ZM14.5833 10.2083C14.9701 10.2083 15.341 10.362 15.6145 10.6355C15.888 10.909 16.0416 11.2799 16.0416 11.6667V21.875C16.0416 22.2618 15.888 22.6327 15.6145 22.9062C15.341 23.1797 14.9701 23.3333 14.5833 23.3333C14.1965 23.3333 13.8256 23.1797 13.5521 22.9062C13.2786 22.6327 13.125 22.2618 13.125 21.875V11.6667C13.125 11.2799 13.2786 10.909 13.5521 10.6355C13.8256 10.362 14.1965 10.2083 14.5833 10.2083ZM16.0416 18.2292C16.0416 17.9069 16.1481 17.5846 16.3625 17.3177L19.2791 13.6719C19.5252 13.3837 19.8737 13.2027 20.2509 13.167C20.6281 13.1313 21.0044 13.2439 21.3001 13.4808C21.5957 13.7177 21.7876 14.0604 21.835 14.4363C21.8824 14.8123 21.7817 15.1919 21.5541 15.4948L19.3666 18.2292L21.5541 20.9635C21.681 21.1121 21.7767 21.2846 21.8356 21.4709C21.8945 21.6571 21.9153 21.8533 21.897 22.0478C21.8786 22.2423 21.8213 22.4311 21.7285 22.603C21.6358 22.7749 21.5094 22.9264 21.357 23.0486C21.2046 23.1707 21.0291 23.261 20.8411 23.3141C20.6531 23.3671 20.4564 23.3819 20.2626 23.3574C20.0688 23.333 19.8818 23.2698 19.7129 23.1717C19.544 23.0737 19.3965 22.9426 19.2791 22.7865L16.3625 19.1406C16.155 18.8821 16.0419 18.5606 16.0416 18.2292Z" fill="white"/>
</svg>
