<svg width="25" height="25" viewBox="0 0 25 25" fill="none" xmlns="http://www.w3.org/2000/svg">
<path d="M1.51395 16.6561L0.0369613 23.0436C-0.0139899 23.2771 -0.0122433 23.519 0.0420734 23.7518C0.0963902 23.9845 0.201905 24.2021 0.35091 24.3888C0.499914 24.5754 0.688645 24.7263 0.903314 24.8305C1.11798 24.9347 1.35317 24.9895 1.59169 24.991C1.70279 25.003 1.81486 25.003 1.92595 24.991L8.3392 23.511L20.6526 11.219L13.7807 4.3486L1.51395 16.6561Z" fill="white"/>
<path d="M24.5238 5.06524L19.9373 0.46939C19.6358 0.168763 19.2277 0 18.8024 0C18.377 0 17.969 0.168763 17.6674 0.46939L15.1177 3.02437L21.9818 9.90256L24.5315 7.34758C24.6808 7.1973 24.7989 7.01902 24.8793 6.82293C24.9597 6.62683 25.0007 6.41678 25 6.20479C24.9992 5.99281 24.9568 5.78304 24.8751 5.5875C24.7934 5.39196 24.674 5.21449 24.5238 5.06524Z" fill="white"/>
</svg>
