<svg width="45" height="45" viewBox="0 0 45 45" fill="none" xmlns="http://www.w3.org/2000/svg">
<path d="M38.9883 30.927C38.0127 29.2465 36.5625 24.4916 36.5625 18.2812C36.5625 14.5516 35.081 10.9748 32.4437 8.33756C29.8065 5.70033 26.2296 4.21875 22.5 4.21875C18.7704 4.21875 15.1936 5.70033 12.5563 8.33756C9.91912 10.9748 8.43754 14.5516 8.43754 18.2812C8.43754 24.4934 6.98558 29.2465 6.01 30.927C5.76086 31.3542 5.62879 31.8395 5.62709 32.3341C5.62539 32.8286 5.75413 33.3149 6.00033 33.7438C6.24652 34.1728 6.60147 34.5292 7.02936 34.7772C7.45726 35.0251 7.94298 35.1559 8.43754 35.1562H15.6112C15.9356 36.7438 16.7984 38.1706 18.0537 39.1953C19.309 40.22 20.8796 40.7797 22.5 40.7797C24.1204 40.7797 25.6911 40.22 26.9464 39.1953C28.2016 38.1706 29.0645 36.7438 29.3889 35.1562H36.5625C37.0569 35.1556 37.5424 35.0246 37.9701 34.7765C38.3977 34.5284 38.7524 34.1719 38.9984 33.7431C39.2444 33.3142 39.373 32.8281 39.3712 32.3337C39.3694 31.8392 39.2374 31.354 38.9883 30.927ZM22.5 37.9687C21.6278 37.9685 20.7772 37.6979 20.0651 37.1942C19.353 36.6905 18.8146 35.9786 18.5239 35.1562H26.4762C26.1855 35.9786 25.647 36.6905 24.935 37.1942C24.2229 37.6979 23.3722 37.9685 22.5 37.9687Z" fill="#FF7171"/>
</svg>
