<svg width="35" height="32" viewBox="0 0 35 32" fill="none" xmlns="http://www.w3.org/2000/svg">
<path d="M30.3242 21.4905C29.5654 20.3227 28.4375 17.0187 28.4375 12.7032C28.4375 10.1116 27.2852 7.62614 25.234 5.79359C23.1828 3.96104 20.4008 2.93152 17.5 2.93152C14.5992 2.93152 11.8172 3.96104 9.76602 5.79359C7.71484 7.62614 6.5625 10.1116 6.5625 12.7032C6.5625 17.0199 5.43321 20.3227 4.67442 21.4905C4.48065 21.7873 4.37792 22.1246 4.3766 22.4682C4.37528 22.8119 4.47541 23.1498 4.6669 23.4478C4.85838 23.7459 5.13445 23.9936 5.46726 24.1659C5.80006 24.3382 6.17785 24.429 6.5625 24.4293H12.142C12.3943 25.5325 13.0654 26.5239 14.0417 27.236C15.0181 27.948 16.2397 28.3369 17.5 28.3369C18.7603 28.3369 19.9819 27.948 20.9583 27.236C21.9346 26.5239 22.6057 25.5325 22.858 24.4293H28.4375C28.822 24.4288 29.1997 24.3378 29.5323 24.1654C29.8649 23.993 30.1408 23.7453 30.3321 23.4473C30.5234 23.1493 30.6234 22.8115 30.622 22.4679C30.6207 22.1244 30.5179 21.7872 30.3242 21.4905ZM17.5 26.3836C16.8216 26.3835 16.16 26.1954 15.6062 25.8454C15.0523 25.4954 14.6335 25.0007 14.4074 24.4293H20.5926C20.3665 25.0007 19.9477 25.4954 19.3938 25.8454C18.84 26.1954 18.1784 26.3835 17.5 26.3836Z" fill="#FF7171"/>
</svg>
