<svg width="45" height="45" viewBox="0 0 45 45" fill="none" xmlns="http://www.w3.org/2000/svg">
<path d="M16.1063 25.3312L28.9125 32.7937M28.8937 12.2062L16.1063 19.6687M39.375 9.375C39.375 12.4816 36.8566 15 33.75 15C30.6434 15 28.125 12.4816 28.125 9.375C28.125 6.2684 30.6434 3.75 33.75 3.75C36.8566 3.75 39.375 6.2684 39.375 9.375ZM16.875 22.5C16.875 25.6066 14.3566 28.125 11.25 28.125C8.1434 28.125 5.625 25.6066 5.625 22.5C5.625 19.3934 8.1434 16.875 11.25 16.875C14.3566 16.875 16.875 19.3934 16.875 22.5ZM39.375 35.625C39.375 38.7316 36.8566 41.25 33.75 41.25C30.6434 41.25 28.125 38.7316 28.125 35.625C28.125 32.5184 30.6434 30 33.75 30C36.8566 30 39.375 32.5184 39.375 35.625Z" stroke="black" stroke-width="2" stroke-linecap="round" stroke-linejoin="round"/>
</svg>
